<?xml version="1.0" encoding="utf-8"?>
<!-- Generator: Adobe Illustrator 23.0.1, SVG Export Plug-In . SVG Version: 6.00 Build 0)  -->
<svg version="1.1" id="Mask" xmlns="http://www.w3.org/2000/svg" xmlns:xlink="http://www.w3.org/1999/xlink" x="0px" y="0px"
	 viewBox="0 0 841.89 595.28" style="enable-background:new 0 0 841.89 595.28;" xml:space="preserve">
<style type="text/css">
	.st0{fill:none;stroke:#EF5BA1;stroke-width:37;stroke-miterlimit:10;}
</style>
<path class="st0" d="M277.07,185.01l14.43-37.82c0,0-52.84-27.08-78.71,0s-21.51,97.45,0,105.9c0,0,16.46,27.8,45.05,17.12
	s38.76-24.4,38.76-24.4"/>
<path class="st0" d="M358.77,172.61c0,0-40.08,0-40.08,57.95c0,0,2.5,45.42,40.08,48.05c37.58,2.63,40.21-48.05,40.21-48.05
	S400.03,181.11,358.77,172.61z"/>
<path class="st0" d="M477.45,140.46c0,0,25.03-19.08,41.92-7.85l2,134.6c0,0,5.63-86.1-50.68-94.6c0,0-41.15,19.62-29.65,75.39
	c0,0,33.13,55.77,62.13,5.09l5.81-11.26c0,0-8.09,44.81,33.68,32.54l22.25-16.58"/>
<path class="st0" d="M596.97,234.21c0,0,44.91-3.86,44.91-33.6c0,0-24.22-46.63-59.97-4.96c0,0-23.94,33.88,0,71.56
	c0,0,52.26,19.63,65.69-19.21l6.22-11.78"/>
<path class="st0" d="M196.13,400.65c0,0,16.78-27.06,12.28-60.85s-21.39-70.37-58.27-67.15c0,0-61.49-7.18-58.11,89.68
	c0,0,0.25,63.07,53.19,66.45l16.33,0.8l12.6-6.19"/>
<path class="st0" d="M128.31,418.24c0,0,28.89-50.73,81.82,20.54c0,0,28.53,4.74,58.02-15.85"/>
<path class="st0" d="M242.97,345.05c0,0,17.68-18.2,39.64-9.75l-2.82,81.99c0,0,8.45,27.37,46.18,0c0,0,14.64-7.66,15.2-9.35
	l2.25-77.86"/>
<path class="st0" d="M340.05,419.99c0,0,10.68,21.96,53.78-7.93"/>
<path class="st0" d="M426.29,386.48c0,0,37.07,1.19,44.96-29.21c0,0-16.63-35.48-45.48-20.84c0,0-32.03,15.2-26.78,55.19
	c0,0,2.43,40.77,44.11,37.84c0,0,25.93-17.4,47.67-26.62"/>
<path class="st0" d="M528.06,386.48c0,0,39.07,1.19,46.96-29.21c0,0-16.63-35.48-45.48-20.84c0,0-32.03,15.2-26.78,55.19
	c0,0,2.43,40.77,44.11,37.84c0,0,25.93-17.4,47.67-26.62"/>
<path class="st0" d="M592.03,338.66c0,0,18.67-9.13,33.67,2.83v90.59"/>
<path class="st0" d="M641.31,343.75c0,0,28.72-21.4,46.74,0c0,0,2.82,75.56,2.82,78.05c0,0,3.94,14.41,32.66,0
	c0,0,9.57-10.36,7.04-20.83l-0.27-11.6"/>
</svg>
